<?xml version="1.0" encoding="UTF-8"?>
<svg xmlns="http://www.w3.org/2000/svg" viewBox="0 0 1740.89 851.42">
  <g id="_レイヤー_3" data-name="レイヤー_3">
    <polygon points="502.56 310.47 272.9 310.47 272.9 347.21 460.19 347.21 326.53 578.71 368.96 578.71 502.56 347.21 502.56 310.47"/>
    <polygon points="732.22 310.47 502.56 310.47 502.56 347.21 689.85 347.21 645.3 424.38 502.56 424.38 502.56 461.12 624.08 461.12 556.19 578.71 598.62 578.71 732.05 347.6 731.37 347.21 732.22 347.21 732.22 310.47"/>
    <polygon points="1244.72 309.71 1015.06 309.71 1015.06 346.45 1202.35 346.45 1068.7 577.95 1111.13 577.95 1244.56 346.84 1243.88 346.45 1244.72 346.45 1244.72 309.71"/>
    <path d="M272.03,528.95l-104.42-181.2h-64.05L0,528.04l21.19,37.43h229.66l21.18-36.52ZM146.2,384.5l83.27,144.23H42.03l83.27-144.23h20.9Z"/>
    <polygon points="1015.06 309.71 993.47 309.63 863.51 537.2 732.8 310.55 690.42 310.55 690.38 310.57 845.3 579.16 881.71 579.16 978.5 408.53 978.5 578.71 1015.24 578.71 1015.06 309.71"/>
  </g>
  <g id="_レイヤー_4" data-name="レイヤー_4">
    <rect x="1281.57" y="309.71" width="459.32" height="36.75"/>
    <path d="M1281.57,424.54v153.41l459.32-.92v-152.49h-459.32ZM1318.31,461.29h174.54v79.92h-174.54v-79.92ZM1704.14,541.21h-174.54v-79.92h174.54v79.92Z"/>
  </g>
</svg>