<?xml version="1.0" encoding="UTF-8"?>
<svg id="_レイヤー_1" data-name="レイヤー 1" xmlns="http://www.w3.org/2000/svg" version="1.1" xmlns:svg="http://www.w3.org/2000/svg" viewBox="0 0 1190.5 841.9">
  <defs>
    <style>
      .cls-1 {
        stroke-width: .3px;
      }

      .cls-1, .cls-2, .cls-3 {
        fill: none;
        stroke: #000;
        stroke-linecap: round;
        stroke-linejoin: round;
      }

      .cls-2 {
        stroke-width: .3px;
      }

      .cls-3 {
        stroke-width: .1px;
      }
    </style>
  </defs>
  <g>
    <path class="cls-2" d="M184.3,437.7v98.2"/>
    <path class="cls-2" d="M985.1,428.7c-2,0-3.6,1.6-3.6,3.6,0,2,1.6,3.6,3.6,3.6"/>
    <path class="cls-2" d="M985.1,428.7h5.3"/>
    <path class="cls-2" d="M985.1,435.9h5.3"/>
    <path class="cls-2" d="M992.1,437.7v98.2"/>
    <path class="cls-2" d="M446.7,533.2v-18"/>
    <path class="cls-2" d="M621.7,425.4v-15.1"/>
    <path class="cls-2" d="M988.5,539.6H187.9"/>
    <path class="cls-2" d="M582,385.8v39.7"/>
    <path class="cls-2" d="M988.5,539.6c2,0,3.6-1.6,3.6-3.6h0"/>
    <path class="cls-2" d="M455.7,515.1c2,0,3.6-1.6,3.6-3.6s-1.6-3.6-3.6-3.6"/>
    <path class="cls-2" d="M191.3,428.7h-5.3"/>
    <path class="cls-2" d="M621.7,403.1v-17.3"/>
    <path class="cls-2" d="M675.6,385.8v39.7"/>
    <path class="cls-2" d="M184.3,426.9c0,1,.8,1.8,1.8,1.8"/>
    <path class="cls-2" d="M407,493.5v39.7"/>
    <path class="cls-2" d="M992.1,426.9v-151.9"/>
    <path class="cls-2" d="M992.1,437.7c0-1-.8-1.8-1.8-1.8"/>
    <path class="cls-2" d="M184.3,536c0,2,1.6,3.6,3.6,3.6h0"/>
    <path class="cls-2" d="M407,533.2h39.7"/>
    <path class="cls-2" d="M635.9,403.1h-14.2"/>
    <path class="cls-2" d="M990.3,428.7c1,0,1.8-.8,1.8-1.8"/>
    <path class="cls-2" d="M582,425.4h39.7"/>
    <path class="cls-2" d="M992.1,275c0-2-1.6-3.6-3.6-3.6h0"/>
    <path class="cls-2" d="M191.3,435.9h-5.3"/>
    <path class="cls-2" d="M635.9,403.1v-17.3"/>
    <path class="cls-2" d="M446.7,507.9v-14.4"/>
    <path class="cls-2" d="M675.6,425.4h-39.7"/>
    <path class="cls-2" d="M635.9,410.3h-14.2"/>
    <path class="cls-2" d="M446.7,493.5h-39.7"/>
    <path class="cls-2" d="M635.9,425.4v-15.1"/>
    <path class="cls-2" d="M446.7,507.9h9"/>
    <path class="cls-2" d="M446.7,515.1h9"/>
    <path class="cls-2" d="M988.5,271.4H187.9"/>
    <path class="cls-2" d="M621.7,385.8h-39.7"/>
    <path class="cls-2" d="M635.9,385.8h39.7"/>
    <path class="cls-2" d="M187.9,271.4c-2,0-3.6,1.6-3.6,3.6"/>
    <path class="cls-2" d="M186.1,435.9c-1,0-1.8.8-1.8,1.8h0"/>
    <path class="cls-2" d="M184.3,275v151.9"/>
  </g>
  <g>
    <path class="cls-3" d="M251.4,356.9h7.2"/>
    <path class="cls-3" d="M258.6,349.7h-7.2"/>
    <path class="cls-3" d="M251.4,349.7c-2,0-3.6,1.6-3.6,3.6s1.6,3.6,3.6,3.6"/>
    <path class="cls-3" d="M258.6,356.9c2,0,3.6-1.6,3.6-3.6s-1.6-3.6-3.6-3.6"/>
    <circle class="cls-3" cx="919.1" cy="352.7" r="3.6"/>
  </g>
  <g>
    <path class="cls-1" d="M886,453v7.9"/>
    <path class="cls-1" d="M886,460.9h2.4"/>
    <path class="cls-1" d="M888.5,443.3v9.6"/>
    <path class="cls-1" d="M888.5,453h-2.4"/>
    <path class="cls-1" d="M888.5,460.9v17.3"/>
    <path class="cls-1" d="M888.5,478.2h5.1"/>
    <path class="cls-1" d="M893.6,478.2v3.3"/>
    <path class="cls-1" d="M893.6,481.5h8.6"/>
    <path class="cls-1" d="M902.2,478.2h5.1"/>
    <path class="cls-1" d="M902.2,481.5v-3.3"/>
    <path class="cls-1" d="M907.4,443.3h-18.9"/>
    <path class="cls-1" d="M907.4,445.6v-2.3"/>
    <path class="cls-1" d="M907.4,475.9h4.6"/>
    <path class="cls-1" d="M907.4,478.2v-2.2"/>
    <path class="cls-1" d="M912,439.7v6"/>
    <path class="cls-1" d="M912,439.7h39.6"/>
    <path class="cls-1" d="M912,445.6h-4.6"/>
    <path class="cls-1" d="M912,475.9v3.3"/>
    <path class="cls-1" d="M912,479.3h39.6"/>
    <path class="cls-1" d="M951.6,439.7v6"/>
    <path class="cls-1" d="M951.6,445.6h4.6"/>
    <path class="cls-1" d="M951.6,475.9v3.3"/>
    <path class="cls-1" d="M956.2,443.3h18.9"/>
    <path class="cls-1" d="M956.2,445.6v-2.3"/>
    <path class="cls-1" d="M956.2,475.9h-4.6"/>
    <path class="cls-1" d="M956.2,478.2v-2.2"/>
    <path class="cls-1" d="M961.3,478.2h-5.1"/>
    <path class="cls-1" d="M961.3,481.5v-3.3"/>
    <path class="cls-1" d="M969.9,478.2v3.3"/>
    <path class="cls-1" d="M969.9,481.5h-8.6"/>
    <path class="cls-1" d="M975,443.3v9.6"/>
    <path class="cls-1" d="M975,453h2.4"/>
    <path class="cls-1" d="M975,460.9v17.3"/>
    <path class="cls-1" d="M975,478.2h-5.1"/>
    <path class="cls-1" d="M977.5,453v7.9"/>
    <path class="cls-1" d="M977.5,460.9h-2.4"/>
    <path class="cls-1" d="M199.3,399.1v7.9"/>
    <path class="cls-1" d="M199.3,407h2.4"/>
    <path class="cls-1" d="M201.8,389.5v9.6"/>
    <path class="cls-1" d="M201.8,399.1h-2.4"/>
    <path class="cls-1" d="M201.8,407v17.3"/>
    <path class="cls-1" d="M201.8,424.3h5.1"/>
    <path class="cls-1" d="M206.9,424.3v3.3"/>
    <path class="cls-1" d="M206.9,427.6h8.6"/>
    <path class="cls-1" d="M215.5,424.3h5.1"/>
    <path class="cls-1" d="M215.5,427.6v-3.3"/>
    <path class="cls-1" d="M220.7,389.5h-18.9"/>
    <path class="cls-1" d="M220.7,391.8v-2.3"/>
    <path class="cls-1" d="M220.7,422.1h4.6"/>
    <path class="cls-1" d="M220.7,424.3v-2.2"/>
    <path class="cls-1" d="M225.3,385.8v6"/>
    <path class="cls-1" d="M225.3,385.8h39.6"/>
    <path class="cls-1" d="M225.3,391.8h-4.6"/>
    <path class="cls-1" d="M225.3,422.1v3.3"/>
    <path class="cls-1" d="M225.3,425.4h39.6"/>
    <path class="cls-1" d="M264.9,385.8v6"/>
    <path class="cls-1" d="M264.9,391.8h4.6"/>
    <path class="cls-1" d="M264.9,422.1v3.3"/>
    <path class="cls-1" d="M269.5,389.5h18.9"/>
    <path class="cls-1" d="M269.5,391.8v-2.3"/>
    <path class="cls-1" d="M269.5,422.1h-4.6"/>
    <path class="cls-1" d="M269.5,424.3v-2.2"/>
    <path class="cls-1" d="M274.6,424.3h-5.1"/>
    <path class="cls-1" d="M274.6,427.6v-3.3"/>
    <path class="cls-1" d="M283.2,424.3v3.3"/>
    <path class="cls-1" d="M283.2,427.6h-8.6"/>
    <path class="cls-1" d="M288.3,389.5v9.6"/>
    <path class="cls-1" d="M288.3,399.1h2.4"/>
    <path class="cls-1" d="M288.3,407v17.3"/>
    <path class="cls-1" d="M288.3,424.3h-5.1"/>
    <path class="cls-1" d="M290.8,399.1v7.9"/>
    <path class="cls-1" d="M290.8,407h-2.4"/>
    <path class="cls-1" d="M670.7,506.8v7.9"/>
    <path class="cls-1" d="M670.7,514.8h2.4"/>
    <path class="cls-1" d="M673.1,497.2v9.6"/>
    <path class="cls-1" d="M673.1,506.8h-2.4"/>
    <path class="cls-1" d="M673.1,514.8v17.3"/>
    <path class="cls-1" d="M673.1,532h5.1"/>
    <path class="cls-1" d="M678.2,532v3.3"/>
    <path class="cls-1" d="M678.2,535.3h8.6"/>
    <path class="cls-1" d="M686.9,532h5.1"/>
    <path class="cls-1" d="M686.9,535.3v-3.3"/>
    <path class="cls-1" d="M692,497.2h-18.9"/>
    <path class="cls-1" d="M692,499.5v-2.3"/>
    <path class="cls-1" d="M692,529.8h4.6"/>
    <path class="cls-1" d="M692,532v-2.2"/>
    <path class="cls-1" d="M696.6,493.5v6"/>
    <path class="cls-1" d="M696.6,493.5h39.6"/>
    <path class="cls-1" d="M696.6,499.5h-4.6"/>
    <path class="cls-1" d="M696.6,529.8v3.3"/>
    <path class="cls-1" d="M696.6,533.1h39.6"/>
    <path class="cls-1" d="M736.2,493.5v6"/>
    <path class="cls-1" d="M736.2,499.5h4.6"/>
    <path class="cls-1" d="M736.2,529.8v3.3"/>
    <path class="cls-1" d="M740.8,497.2h18.9"/>
    <path class="cls-1" d="M740.8,499.5v-2.3"/>
    <path class="cls-1" d="M740.8,529.8h-4.6"/>
    <path class="cls-1" d="M740.8,532v-2.2"/>
    <path class="cls-1" d="M745.9,532h-5.1"/>
    <path class="cls-1" d="M745.9,535.3v-3.3"/>
    <path class="cls-1" d="M754.6,532v3.3"/>
    <path class="cls-1" d="M754.6,535.3h-8.6"/>
    <path class="cls-1" d="M759.7,497.2v9.6"/>
    <path class="cls-1" d="M759.7,506.8h2.4"/>
    <path class="cls-1" d="M759.7,514.8v17.3"/>
    <path class="cls-1" d="M759.7,532h-5.1"/>
    <path class="cls-1" d="M762.1,506.8v7.9"/>
    <path class="cls-1" d="M762.1,514.8h-2.4"/>
    <path class="cls-1" d="M189.8,291.4v7.9"/>
    <path class="cls-1" d="M189.8,299.3h2.4"/>
    <path class="cls-1" d="M192.2,281.8v9.6"/>
    <path class="cls-1" d="M192.2,291.4h-2.4"/>
    <path class="cls-1" d="M192.2,299.3v17.3"/>
    <path class="cls-1" d="M192.2,316.6h5.1"/>
    <path class="cls-1" d="M197.3,316.6v3.3"/>
    <path class="cls-1" d="M197.3,319.9h8.6"/>
    <path class="cls-1" d="M206,316.6h5.1"/>
    <path class="cls-1" d="M206,319.9v-3.3"/>
    <path class="cls-1" d="M211.1,281.8h-18.9"/>
    <path class="cls-1" d="M211.1,284.1v-2.3"/>
    <path class="cls-1" d="M211.1,314.4h4.6"/>
    <path class="cls-1" d="M211.1,316.6v-2.2"/>
    <path class="cls-1" d="M215.7,278.1v6"/>
    <path class="cls-1" d="M215.7,278.1h39.6"/>
    <path class="cls-1" d="M215.7,284.1h-4.6"/>
    <path class="cls-1" d="M215.7,314.4v3.3"/>
    <path class="cls-1" d="M215.7,317.7h39.6"/>
    <path class="cls-1" d="M255.3,278.1v6"/>
    <path class="cls-1" d="M255.3,284.1h4.6"/>
    <path class="cls-1" d="M255.3,314.4v3.3"/>
    <path class="cls-1" d="M259.9,281.8h18.9"/>
    <path class="cls-1" d="M259.9,284.1v-2.3"/>
    <path class="cls-1" d="M259.9,314.4h-4.6"/>
    <path class="cls-1" d="M259.9,316.6v-2.2"/>
    <path class="cls-1" d="M265,316.6h-5.1"/>
    <path class="cls-1" d="M265,319.9v-3.3"/>
    <path class="cls-1" d="M273.7,316.6v3.3"/>
    <path class="cls-1" d="M273.7,319.9h-8.6"/>
    <path class="cls-1" d="M278.8,281.8v9.6"/>
    <path class="cls-1" d="M278.8,291.4h2.4"/>
    <path class="cls-1" d="M278.8,299.3v17.3"/>
    <path class="cls-1" d="M278.8,316.6h-5.1"/>
    <path class="cls-1" d="M281.2,291.4v7.9"/>
    <path class="cls-1" d="M281.2,299.3h-2.4"/>
    <path class="cls-1" d="M468.6,506.8v7.9"/>
    <path class="cls-1" d="M468.6,514.8h2.4"/>
    <path class="cls-1" d="M471,497.2v9.6"/>
    <path class="cls-1" d="M471,506.8h-2.4"/>
    <path class="cls-1" d="M471,514.8v17.3"/>
    <path class="cls-1" d="M471,532h5.1"/>
    <path class="cls-1" d="M476.1,532v3.3"/>
    <path class="cls-1" d="M476.1,535.3h8.6"/>
    <path class="cls-1" d="M484.8,532h5.1"/>
    <path class="cls-1" d="M484.8,535.3v-3.3"/>
    <path class="cls-1" d="M489.9,497.2h-18.9"/>
    <path class="cls-1" d="M489.9,499.5v-2.3"/>
    <path class="cls-1" d="M489.9,529.8h4.6"/>
    <path class="cls-1" d="M489.9,532v-2.2"/>
    <path class="cls-1" d="M494.5,493.5v6"/>
    <path class="cls-1" d="M494.5,493.5h39.6"/>
    <path class="cls-1" d="M494.5,499.5h-4.6"/>
    <path class="cls-1" d="M494.5,529.8v3.3"/>
    <path class="cls-1" d="M494.5,533.1h39.6"/>
    <path class="cls-1" d="M534.1,493.5v6"/>
    <path class="cls-1" d="M534.1,499.5h4.6"/>
    <path class="cls-1" d="M534.1,529.8v3.3"/>
    <path class="cls-1" d="M538.7,497.2h18.9"/>
    <path class="cls-1" d="M538.7,499.5v-2.3"/>
    <path class="cls-1" d="M538.7,529.8h-4.6"/>
    <path class="cls-1" d="M538.7,532v-2.2"/>
    <path class="cls-1" d="M543.8,532h-5.1"/>
    <path class="cls-1" d="M543.8,535.3v-3.3"/>
    <path class="cls-1" d="M552.4,532v3.3"/>
    <path class="cls-1" d="M552.4,535.3h-8.6"/>
    <path class="cls-1" d="M557.6,497.2v9.6"/>
    <path class="cls-1" d="M557.6,506.8h2.4"/>
    <path class="cls-1" d="M557.6,514.8v17.3"/>
    <path class="cls-1" d="M557.6,532h-5.1"/>
    <path class="cls-1" d="M560,506.8v7.9"/>
    <path class="cls-1" d="M560,514.8h-2.4"/>
  </g>
  <g>
    <path class="cls-3" d="M942.7,278h39.7"/>
    <path class="cls-3" d="M942.7,317.7v-39.7"/>
    <path class="cls-3" d="M982.4,278v39.7"/>
    <path class="cls-3" d="M982.4,317.7h-39.7"/>
    <path class="cls-3" d="M888.9,278h39.7"/>
    <path class="cls-3" d="M888.9,317.7v-39.7"/>
    <path class="cls-3" d="M928.6,278v39.7"/>
    <path class="cls-3" d="M928.6,317.7h-39.7"/>
    <path class="cls-3" d="M835,278h39.7"/>
    <path class="cls-3" d="M835,317.7v-39.7"/>
    <path class="cls-3" d="M874.7,278v39.7"/>
    <path class="cls-3" d="M874.7,317.7h-39.7"/>
    <path class="cls-3" d="M781.2,278h39.7"/>
    <path class="cls-3" d="M781.2,317.7v-39.7"/>
    <path class="cls-3" d="M820.9,278v39.7"/>
    <path class="cls-3" d="M820.9,317.7h-39.7"/>
    <path class="cls-3" d="M727.3,278.1h39.7"/>
    <path class="cls-3" d="M727.3,317.7v-39.7"/>
    <path class="cls-3" d="M767,278.1v39.7"/>
    <path class="cls-3" d="M767,317.7h-39.7"/>
    <path class="cls-3" d="M673.5,278h39.7"/>
    <path class="cls-3" d="M673.5,317.7v-39.7"/>
    <path class="cls-3" d="M713.1,278v39.7"/>
    <path class="cls-3" d="M713.1,317.7h-39.7"/>
    <path class="cls-3" d="M619.6,278h39.7"/>
    <path class="cls-3" d="M619.6,317.7v-39.7"/>
    <path class="cls-3" d="M659.3,278v39.7"/>
    <path class="cls-3" d="M659.3,317.7h-39.7"/>
    <path class="cls-3" d="M565.7,278h39.7"/>
    <path class="cls-3" d="M565.7,317.7v-39.7"/>
    <path class="cls-3" d="M605.4,278v39.7"/>
    <path class="cls-3" d="M605.4,317.7h-39.7"/>
    <path class="cls-3" d="M511.9,278h39.7"/>
    <path class="cls-3" d="M511.9,317.7v-39.7"/>
    <path class="cls-3" d="M551.6,278v39.7"/>
    <path class="cls-3" d="M551.6,317.7h-39.7"/>
    <path class="cls-3" d="M458,278h39.7"/>
    <path class="cls-3" d="M458,317.7v-39.7"/>
    <path class="cls-3" d="M497.7,278v39.7"/>
    <path class="cls-3" d="M497.7,317.7h-39.7"/>
    <path class="cls-3" d="M404.2,278h39.7"/>
    <path class="cls-3" d="M404.2,317.7v-39.7"/>
    <path class="cls-3" d="M443.8,278v39.7"/>
    <path class="cls-3" d="M443.8,317.7h-39.7"/>
    <path class="cls-3" d="M350.3,278h39.7"/>
    <path class="cls-3" d="M350.3,317.7v-39.7"/>
    <path class="cls-3" d="M390,278v39.7"/>
    <path class="cls-3" d="M390,317.7h-39.7"/>
    <path class="cls-3" d="M296.4,278h39.7"/>
    <path class="cls-3" d="M296.4,317.7v-39.7"/>
    <path class="cls-3" d="M336.1,278v39.7"/>
    <path class="cls-3" d="M336.1,317.7h-39.7"/>
    <path class="cls-3" d="M932.1,331.9h39.7"/>
    <path class="cls-3" d="M932.1,371.6v-39.7"/>
    <path class="cls-3" d="M971.8,331.9v39.7"/>
    <path class="cls-3" d="M971.8,371.6h-39.7"/>
    <path class="cls-3" d="M864.8,331.9h39.7"/>
    <path class="cls-3" d="M864.8,371.6v-39.7"/>
    <path class="cls-3" d="M904.5,331.9v39.7"/>
    <path class="cls-3" d="M904.5,371.6h-39.7"/>
    <path class="cls-3" d="M810.9,331.9h39.7"/>
    <path class="cls-3" d="M810.9,371.6v-39.7"/>
    <path class="cls-3" d="M850.6,331.9v39.7"/>
    <path class="cls-3" d="M850.6,371.6h-39.7"/>
    <path class="cls-3" d="M757.1,331.9h39.7"/>
    <path class="cls-3" d="M757.1,371.6v-39.7"/>
    <path class="cls-3" d="M796.8,331.9v39.7"/>
    <path class="cls-3" d="M796.8,371.6h-39.7"/>
    <path class="cls-3" d="M703.2,331.9h39.7"/>
    <path class="cls-3" d="M703.2,371.6v-39.7"/>
    <path class="cls-3" d="M742.9,331.9v39.7"/>
    <path class="cls-3" d="M742.9,371.6h-39.7"/>
    <path class="cls-3" d="M649.4,331.9h39.7"/>
    <path class="cls-3" d="M649.4,371.6v-39.7"/>
    <path class="cls-3" d="M689,331.9v39.7"/>
    <path class="cls-3" d="M689,371.6h-39.7"/>
    <path class="cls-3" d="M595.5,331.9h39.7"/>
    <path class="cls-3" d="M595.5,371.6v-39.7"/>
    <path class="cls-3" d="M635.2,331.9v39.7"/>
    <path class="cls-3" d="M635.2,371.6h-39.7"/>
    <path class="cls-3" d="M541.6,331.9h39.7"/>
    <path class="cls-3" d="M541.6,371.6v-39.7"/>
    <path class="cls-3" d="M581.3,331.9v39.7"/>
    <path class="cls-3" d="M581.3,371.6h-39.7"/>
    <path class="cls-3" d="M487.8,331.9h39.7"/>
    <path class="cls-3" d="M487.8,371.6v-39.7"/>
    <path class="cls-3" d="M527.5,331.9v39.7"/>
    <path class="cls-3" d="M527.5,371.6h-39.7"/>
    <path class="cls-3" d="M433.9,331.9h39.7"/>
    <path class="cls-3" d="M433.9,371.6v-39.7"/>
    <path class="cls-3" d="M473.6,331.9v39.7"/>
    <path class="cls-3" d="M473.6,371.6h-39.7"/>
    <path class="cls-3" d="M380.1,331.9h39.7"/>
    <path class="cls-3" d="M380.1,371.6v-39.7"/>
    <path class="cls-3" d="M419.8,331.9v39.7"/>
    <path class="cls-3" d="M419.8,371.6h-39.7"/>
    <path class="cls-3" d="M326.2,331.9h39.7"/>
    <path class="cls-3" d="M326.2,371.6v-39.7"/>
    <path class="cls-3" d="M365.9,331.9v39.7"/>
    <path class="cls-3" d="M365.9,371.6h-39.7"/>
    <path class="cls-3" d="M272.4,331.9h39.7"/>
    <path class="cls-3" d="M272.4,371.6v-39.7"/>
    <path class="cls-3" d="M312,331.9v39.7"/>
    <path class="cls-3" d="M312,371.6h-39.7"/>
    <path class="cls-3" d="M205,331.9h39.7"/>
    <path class="cls-3" d="M205,371.6v-39.7"/>
    <path class="cls-3" d="M244.7,331.9v39.7"/>
    <path class="cls-3" d="M244.7,371.6h-39.7"/>
    <path class="cls-3" d="M925.4,385.8h39.7"/>
    <path class="cls-3" d="M925.4,425.4v-39.7"/>
    <path class="cls-3" d="M965.1,385.8v39.7"/>
    <path class="cls-3" d="M965.1,425.4h-39.7"/>
    <path class="cls-3" d="M851.3,385.8h39.7"/>
    <path class="cls-3" d="M851.3,425.4v-39.7"/>
    <path class="cls-3" d="M891,385.8v39.7"/>
    <path class="cls-3" d="M891,425.4h-39.7"/>
    <path class="cls-3" d="M797.5,385.8h39.7"/>
    <path class="cls-3" d="M797.5,425.4v-39.7"/>
    <path class="cls-3" d="M837.2,385.8v39.7"/>
    <path class="cls-3" d="M837.2,425.4h-39.7"/>
    <path class="cls-3" d="M743.6,385.8h39.7"/>
    <path class="cls-3" d="M743.6,425.4v-39.7"/>
    <path class="cls-3" d="M783.3,385.8v39.7"/>
    <path class="cls-3" d="M783.3,425.4h-39.7"/>
    <path class="cls-3" d="M689.8,385.8h39.7"/>
    <path class="cls-3" d="M689.8,425.4v-39.7"/>
    <path class="cls-3" d="M729.4,385.8v39.7"/>
    <path class="cls-3" d="M729.4,425.4h-39.7"/>
    <path class="cls-3" d="M528.2,385.8h39.7"/>
    <path class="cls-3" d="M528.2,425.4v-39.7"/>
    <path class="cls-3" d="M567.9,385.8v39.7"/>
    <path class="cls-3" d="M567.9,425.4h-39.7"/>
    <path class="cls-3" d="M474.3,385.8h39.7"/>
    <path class="cls-3" d="M474.3,425.4v-39.7"/>
    <path class="cls-3" d="M514,385.8v39.7"/>
    <path class="cls-3" d="M514,425.4h-39.7"/>
    <path class="cls-3" d="M420.5,385.8h39.7"/>
    <path class="cls-3" d="M420.5,425.4v-39.7"/>
    <path class="cls-3" d="M460.1,385.8v39.7"/>
    <path class="cls-3" d="M460.1,425.4h-39.7"/>
    <path class="cls-3" d="M366.6,385.8h39.7"/>
    <path class="cls-3" d="M366.6,425.4v-39.7"/>
    <path class="cls-3" d="M406.3,385.8v39.7"/>
    <path class="cls-3" d="M406.3,425.4h-39.7"/>
    <path class="cls-3" d="M312.7,385.8h39.7"/>
    <path class="cls-3" d="M312.7,425.4v-39.7"/>
    <path class="cls-3" d="M352.4,385.8v39.7"/>
    <path class="cls-3" d="M352.4,425.4h-39.7"/>
    <path class="cls-3" d="M824.4,439.6h39.7"/>
    <path class="cls-3" d="M824.4,479.3v-39.7"/>
    <path class="cls-3" d="M864.1,439.6v39.7"/>
    <path class="cls-3" d="M864.1,479.3h-39.7"/>
    <path class="cls-3" d="M770.5,439.6h39.7"/>
    <path class="cls-3" d="M770.5,479.3v-39.7"/>
    <path class="cls-3" d="M810.2,439.6v39.7"/>
    <path class="cls-3" d="M810.2,479.3h-39.7"/>
    <path class="cls-3" d="M716.7,439.6h39.7"/>
    <path class="cls-3" d="M716.7,479.3v-39.7"/>
    <path class="cls-3" d="M756.4,439.6v39.7"/>
    <path class="cls-3" d="M756.4,479.3h-39.7"/>
    <path class="cls-3" d="M609,439.6h39.7"/>
    <path class="cls-3" d="M609,479.3v-39.7"/>
    <path class="cls-3" d="M648.7,439.6v39.7"/>
    <path class="cls-3" d="M648.7,479.3h-39.7"/>
    <path class="cls-3" d="M555.1,439.6h39.7"/>
    <path class="cls-3" d="M555.1,479.3v-39.7"/>
    <path class="cls-3" d="M594.8,439.6v39.7"/>
    <path class="cls-3" d="M594.8,479.3h-39.7"/>
    <path class="cls-3" d="M501.3,439.6h39.7"/>
    <path class="cls-3" d="M501.3,479.3v-39.7"/>
    <path class="cls-3" d="M540.9,439.6v39.7"/>
    <path class="cls-3" d="M540.9,479.3h-39.7"/>
    <path class="cls-3" d="M447.4,439.6h39.7"/>
    <path class="cls-3" d="M447.4,479.3v-39.7"/>
    <path class="cls-3" d="M487.1,439.6v39.7"/>
    <path class="cls-3" d="M487.1,479.3h-39.7"/>
    <path class="cls-3" d="M393.5,439.6h39.7"/>
    <path class="cls-3" d="M393.5,479.3v-39.7"/>
    <path class="cls-3" d="M433.2,439.6v39.7"/>
    <path class="cls-3" d="M433.2,479.3h-39.7"/>
    <path class="cls-3" d="M319.5,439.6h39.7"/>
    <path class="cls-3" d="M319.5,479.3v-39.7"/>
    <path class="cls-3" d="M359.2,439.6v39.7"/>
    <path class="cls-3" d="M359.2,479.3h-39.7"/>
    <path class="cls-3" d="M245.4,439.6h39.7"/>
    <path class="cls-3" d="M245.4,479.3v-39.7"/>
    <path class="cls-3" d="M285.1,439.6v39.7"/>
    <path class="cls-3" d="M285.1,479.3h-39.7"/>
    <path class="cls-3" d="M191.6,439.6h39.7"/>
    <path class="cls-3" d="M191.6,479.3v-39.7"/>
    <path class="cls-3" d="M231.3,439.6v39.7"/>
    <path class="cls-3" d="M231.3,479.3h-39.7"/>
    <path class="cls-3" d="M945.6,493.5h39.7"/>
    <path class="cls-3" d="M945.6,533.2v-39.7"/>
    <path class="cls-3" d="M985.3,493.5v39.7"/>
    <path class="cls-3" d="M985.3,533.2h-39.7"/>
    <path class="cls-3" d="M891.7,493.5h39.7"/>
    <path class="cls-3" d="M891.7,533.2v-39.7"/>
    <path class="cls-3" d="M931.4,493.5v39.7"/>
    <path class="cls-3" d="M931.4,533.2h-39.7"/>
    <path class="cls-3" d="M837.9,493.5h39.7"/>
    <path class="cls-3" d="M837.9,533.2v-39.7"/>
    <path class="cls-3" d="M877.5,493.5v39.7"/>
    <path class="cls-3" d="M877.5,533.2h-39.7"/>
    <path class="cls-3" d="M784,493.5h39.7"/>
    <path class="cls-3" d="M784,533.2v-39.7"/>
    <path class="cls-3" d="M823.7,493.5v39.7"/>
    <path class="cls-3" d="M823.7,533.2h-39.7"/>
    <path class="cls-3" d="M595.5,493.5h39.7"/>
    <path class="cls-3" d="M595.5,533.2v-39.7"/>
    <path class="cls-3" d="M635.2,493.5v39.7"/>
    <path class="cls-3" d="M635.2,533.2h-39.7"/>
    <path class="cls-3" d="M353.1,493.5h39.7"/>
    <path class="cls-3" d="M353.1,533.2v-39.7"/>
    <path class="cls-3" d="M392.8,493.5v39.7"/>
    <path class="cls-3" d="M392.8,533.2h-39.7"/>
    <path class="cls-3" d="M299.3,493.5h39.7"/>
    <path class="cls-3" d="M299.3,533.2v-39.7"/>
    <path class="cls-3" d="M339,493.5v39.7"/>
    <path class="cls-3" d="M339,533.2h-39.7"/>
    <path class="cls-3" d="M245.4,493.5h39.7"/>
    <path class="cls-3" d="M245.4,533.2v-39.7"/>
    <path class="cls-3" d="M285.1,493.5v39.7"/>
    <path class="cls-3" d="M285.1,533.2h-39.7"/>
    <path class="cls-3" d="M191.6,493.5h39.7"/>
    <path class="cls-3" d="M191.6,533.2v-39.7"/>
    <path class="cls-3" d="M231.3,493.5v39.7"/>
    <path class="cls-3" d="M231.3,533.2h-39.7"/>
    <path class="cls-3" d="M662.8,439.6h39.7"/>
    <path class="cls-3" d="M662.8,479.3v-39.7"/>
    <path class="cls-3" d="M702.5,439.6v39.7"/>
    <path class="cls-3" d="M702.5,479.3h-39.7"/>
  </g>
  <path class="cls-2" d="M191.3,435.9c2,0,3.6-1.6,3.6-3.6,0-2-1.6-3.6-3.6-3.6"/>
</svg>